<svg xmlns="http://www.w3.org/2000/svg" height="40" width="40"><path d="M12.042 35.917q-1.125 0-1.917-.813-.792-.812-.792-1.937 0-1.167.792-1.979.792-.813 1.958-.813 1.125 0 1.938.813.812.812.812 1.979 0 1.125-.812 1.937-.813.813-1.979.813Zm16.166 0q-1.125 0-1.937-.813-.813-.812-.813-1.937 0-1.167.813-1.979.812-.813 1.937-.813 1.167 0 1.959.813.791.812.791 1.979 0 1.125-.791 1.937-.792.813-1.959.813ZM8.75 7.083h23.125q1.042 0 1.563.875.52.875.02 1.792l-5.166 9.375q-.417.708-1.084 1.125-.666.417-1.458.417H13.5l-2.167 4q-.125.208-.021.437.105.229.355.229h19.291v2.084H11.875q-1.625 0-2.375-1.209-.75-1.208 0-2.541l2.583-4.709L5.875 5.833H2.708V3.75h4.5Z"/></svg>